<svg width="301" height="200" viewBox="0 0 301 200" fill="none" xmlns="http://www.w3.org/2000/svg">
<path d="M60.4729 65.748C57.0496 92.588 70.8635 120.104 92.688 136.196C114.512 152.288 143.232 157.6 170.105 153.744C189.289 151.004 208.316 143.508 221.837 129.672C235.358 115.836 242.486 95.048 237.04 76.512C234.981 69.512 230.939 62.728 224.526 59.212C214.284 53.612 201.65 57.716 190.742 61.924C179.834 66.132 167.22 70.276 156.953 64.7239C149.067 60.448 145.014 51.644 139.235 44.7959C129.406 33.152 113.437 26.968 98.2986 28.948C96.4032 29.1965 94.5262 29.5694 92.68 30.064C76.5744 34.372 64.398 47.56 60.8823 63.808L60.4729 65.748Z" fill="#EBEBEB"/>
<path d="M134.539 38.876H182.884C182.884 38.876 178.421 17.6 158.346 17.6C140.491 17.6 134.539 38.876 134.539 38.876Z" fill="#E59C9C"/>
<path d="M159.229 0H158.194V17.592H159.229V0Z" fill="#E59C9C"/>
<path d="M266.353 175.932C266.353 175.988 214.481 176.036 150.504 176.036C86.5276 176.036 34.6472 176 34.6472 175.932C34.6472 175.864 86.5115 175.828 150.504 175.828C214.497 175.828 266.353 175.872 266.353 175.932Z" fill="#263238"/>
<path d="M47.4736 150.88C48.1521 150.929 48.8138 151.113 49.4192 151.423C50.0246 151.732 50.5613 152.16 50.9973 152.68C51.8641 153.727 52.4778 154.959 52.7912 156.28C53.4695 158.808 53.0521 161.796 52.3297 164.312C49.5846 163.332 47.8869 160.412 47.1124 158.876C45.9084 156.452 45.19 151.332 47.4615 150.876" fill="#E59C9C"/>
<path d="M56.283 167.38C55.8708 166.743 55.6351 166.008 55.5998 165.251C55.5646 164.494 55.7311 163.741 56.0824 163.068C56.4446 162.402 56.9364 161.814 57.529 161.34C58.1216 160.865 58.8032 160.513 59.5338 160.304C60.204 160.096 60.9826 160.012 61.5646 160.4C61.8269 160.598 62.0312 160.862 62.1561 161.165C62.2811 161.469 62.3221 161.8 62.2749 162.124C62.1696 162.774 61.8925 163.384 61.4723 163.892C60.1358 165.696 58.5144 167.196 56.2549 167.38" fill="#E59C9C"/>
<path d="M56.5879 175.832C56.5284 175.662 56.4867 175.487 56.4635 175.308C56.3913 174.932 56.2949 174.448 56.1786 173.868C55.8183 172.28 55.718 170.644 55.8816 169.024C56.0708 167.396 56.6929 165.848 57.6836 164.54C57.9862 164.149 58.3353 163.796 58.723 163.488C58.8284 163.405 58.9382 163.327 59.0521 163.256C59.0883 163.226 59.1289 163.202 59.1725 163.184C58.6648 163.616 58.2011 164.097 57.7879 164.62C56.8495 165.929 56.2586 167.454 56.0702 169.052C55.8133 170.916 56.1304 172.624 56.315 173.852C56.4113 174.464 56.4916 174.96 56.5357 175.304C56.5674 175.478 56.5848 175.655 56.5879 175.832Z" fill="#263238"/>
<path d="M48.3567 154.732C48.4025 154.795 48.4403 154.864 48.4691 154.936C48.5413 155.096 48.6376 155.296 48.75 155.548C48.9948 156.08 49.3359 156.852 49.7493 157.808C50.5761 159.724 51.6837 162.388 52.8396 165.356C53.9954 168.324 54.9787 171.032 55.6489 173.004C55.9941 173.988 56.263 174.788 56.4516 175.344C56.5359 175.608 56.6001 175.82 56.6522 175.984C56.6809 176.058 56.7011 176.134 56.7124 176.212C56.6717 176.144 56.6394 176.072 56.6161 175.996C56.5559 175.836 56.4797 175.628 56.3793 175.368L55.5325 173.048C54.8141 171.092 53.8108 168.388 52.659 165.424C51.5072 162.46 50.4155 159.788 49.6209 157.86C49.2196 156.912 48.9105 156.14 48.6818 155.576C48.5774 155.32 48.4931 155.116 48.4289 154.952C48.3988 154.881 48.3746 154.807 48.3567 154.732Z" fill="#263238"/>
<path d="M53.3251 170.24C52.4993 168.87 51.3581 167.715 49.9959 166.871C48.6336 166.028 47.0895 165.519 45.4911 165.388C44.6884 165.332 43.7011 165.468 43.3399 166.188C42.9787 166.908 43.4603 167.788 44.0142 168.372C45.1909 169.599 46.7057 170.451 48.3677 170.821C50.0297 171.192 51.7644 171.063 53.3532 170.452" fill="#E59C9C"/>
<path d="M46.7273 167.556C46.8975 167.548 47.068 167.554 47.237 167.576C47.4349 167.587 47.6319 167.609 47.827 167.644C48.0557 167.688 48.3246 167.712 48.6056 167.792C48.9196 167.858 49.2292 167.944 49.5326 168.048C49.8842 168.161 50.2286 168.294 50.5641 168.448C51.3356 168.793 52.0654 169.223 52.7393 169.732C53.4054 170.253 54.0088 170.849 54.5373 171.508C54.7655 171.795 54.9759 172.096 55.1674 172.408C55.3404 172.678 55.4985 172.957 55.6409 173.244C55.7615 173.478 55.8687 173.718 55.962 173.964C56.0425 174.146 56.1108 174.333 56.1667 174.524C56.2261 174.684 56.2705 174.848 56.2991 175.016C56.255 175.016 56.0623 174.328 55.5205 173.304C55.373 173.029 55.2109 172.762 55.0349 172.504C54.8393 172.201 54.6277 171.909 54.4008 171.628C53.3511 170.335 52.0124 169.305 50.4918 168.62C50.1427 168.468 49.8096 168.324 49.4845 168.22C49.186 168.112 48.8819 168.02 48.5734 167.944C47.4497 167.636 46.7233 167.6 46.7273 167.556Z" fill="#263238"/>
<path d="M228.905 42.1921C227.725 42.4601 227.151 43.8161 227.038 45.0161C226.926 46.2161 227.078 47.4881 226.573 48.5841C226.003 49.8161 224.642 50.7281 224.598 52.0841C224.57 52.9121 225.064 53.6841 225.04 54.5201C225 55.8801 223.611 56.9201 223.535 58.2641C223.483 59.2441 224.137 60.1801 223.98 61.1481C223.86 61.9001 223.27 62.4921 223.021 63.2121C222.527 64.6521 223.519 66.2321 224.807 67.0401C225.529 67.4924 226.341 67.7821 227.186 67.8891C228.032 67.996 228.891 67.9176 229.703 67.6593C230.516 67.4011 231.261 66.9691 231.889 66.3938C232.516 65.8184 233.01 65.1134 233.335 64.3281C234.05 62.6001 233.893 60.6521 233.737 58.7921C233.255 52.9894 232.896 47.1788 232.661 41.3601" fill="#263238"/>
<path d="M225.477 62.664C225.72 62.5136 225.909 62.2912 226.019 62.028C226.135 61.7149 226.181 61.3806 226.155 61.048C226.111 60.6069 226.013 60.173 225.862 59.756C225.67 59.2318 225.599 58.6713 225.654 58.116C225.754 57.492 226.203 56.98 226.609 56.476C226.827 56.2293 227.009 55.9533 227.151 55.656C227.292 55.3553 227.315 55.0127 227.215 54.696C227.006 54.044 226.364 53.564 226.071 52.808C225.933 52.4337 225.911 52.027 226.007 51.64C226.098 51.2771 226.233 50.9265 226.408 50.596C226.747 50.0006 227.016 49.3684 227.211 48.712C227.492 47.444 227.359 46.232 227.552 45.236C227.659 44.4382 228.014 43.694 228.567 43.108C228.724 42.9501 228.902 42.8154 229.097 42.708C229.164 42.6731 229.236 42.6475 229.31 42.632C229.058 42.77 228.827 42.9423 228.623 43.144C228.111 43.7359 227.788 44.4673 227.696 45.244C227.626 45.7745 227.589 46.3088 227.584 46.844C227.583 47.4737 227.521 48.1019 227.399 48.72C227.208 49.3915 226.939 50.0386 226.597 50.648C226.296 51.276 226.019 52.012 226.284 52.7C226.549 53.388 227.187 53.864 227.432 54.6C227.542 54.9636 227.515 55.355 227.355 55.7C227.199 56.0271 226.996 56.3302 226.753 56.6C226.352 57.104 225.914 57.584 225.818 58.144C225.762 58.6751 225.825 59.2121 226.003 59.716C226.146 60.1459 226.235 60.592 226.268 61.044C226.287 61.392 226.226 61.7399 226.087 62.06C226.001 62.2606 225.862 62.4346 225.686 62.564C225.623 62.6098 225.552 62.6437 225.477 62.664Z" fill="#455A64"/>
<path d="M222.339 72.148L218.727 82.548L203.62 83.348L201.1 88.948L216.873 90.548C217.618 90.8529 218.417 91.0041 219.223 90.9924C220.028 90.9808 220.823 90.8065 221.559 90.4801C222.295 90.1537 222.957 89.682 223.505 89.0935C224.053 88.505 224.475 87.8119 224.747 87.056L228.957 75.344L222.339 72.148Z" fill="#B78876"/>
<path d="M253.567 170.28C253.567 170.28 242.498 135.232 242.261 134.096C242.048 133.064 246.274 107.844 246.812 101.296L231.854 101.852V102L225.497 102.352L231.188 174H238.071L237.389 150.22C241.635 161.576 247.719 173.152 247.719 173.152L253.567 170.28Z" fill="#B78876"/>
<path d="M237.67 158.752C237.67 158.536 237.585 150.784 237.585 150.784C237.501 151.248 234.949 144.056 235.009 143.62C235.041 143.392 237.67 158.752 237.67 158.752Z" fill="#A36957"/>
<path d="M234.72 140.212C234.685 140.354 234.67 140.501 234.676 140.648C234.654 141.048 234.654 141.448 234.676 141.848C234.676 142.1 234.712 142.372 234.744 142.668C234.776 142.964 234.82 143.276 234.889 143.6C235.031 144.308 235.22 145.005 235.454 145.688C235.952 147.14 236.506 148.408 236.895 149.328C237.08 149.728 237.24 150.108 237.377 150.412C237.426 150.553 237.494 150.688 237.578 150.812C237.556 150.674 237.516 150.539 237.457 150.412C237.365 150.148 237.224 149.768 237.056 149.3C236.703 148.364 236.173 147.084 235.679 145.648C235.446 144.975 235.254 144.288 235.105 143.592C235.033 143.272 234.985 142.964 234.941 142.676C234.897 142.388 234.864 142.116 234.844 141.876C234.796 141.38 234.776 140.98 234.764 140.7C234.772 140.536 234.757 140.372 234.72 140.212Z" fill="#A36957"/>
<path d="M231.06 174.364V173.72L238.111 173.412L238.131 176.072L237.698 176.1C235.759 176.212 227.845 176.54 226.553 176.152C225.104 175.72 231.06 174.364 231.06 174.364Z" fill="#455A64"/>
<path d="M238.223 175.912C238.183 175.915 238.143 175.915 238.103 175.912L237.758 175.936L236.482 175.992C235.406 176.036 233.917 176.076 232.276 176.084C230.634 176.092 229.141 176.064 228.062 176.032L226.789 175.98H226.44H226.32C226.36 175.977 226.4 175.977 226.44 175.98H226.789L228.066 176.004C229.141 176.004 230.63 176.036 232.272 176.028C233.913 176.02 235.406 175.992 236.482 175.964L237.758 175.932H238.223V175.912Z" fill="#263238"/>
<path d="M228.76 176.136C228.701 175.927 228.621 175.724 228.519 175.532C228.392 175.355 228.245 175.192 228.082 175.048C228.301 175.126 228.483 175.283 228.591 175.488C228.724 175.677 228.784 175.907 228.76 176.136Z" fill="#263238"/>
<path d="M230.839 175.084C230.839 175.084 230.723 174.976 230.618 174.816C230.514 174.656 230.45 174.516 230.47 174.504C230.49 174.492 230.586 174.608 230.69 174.768C230.795 174.928 230.859 175.072 230.839 175.084Z" fill="#263238"/>
<path d="M231.409 174.8C231.409 174.82 231.281 174.744 231.16 174.636C231.04 174.528 230.951 174.428 230.967 174.412C230.984 174.396 231.096 174.468 231.216 174.576C231.337 174.684 231.425 174.764 231.409 174.8Z" fill="#263238"/>
<path d="M231.766 174.12C231.648 174.163 231.522 174.179 231.397 174.168C231.274 174.184 231.149 174.172 231.031 174.132C231.148 174.089 231.273 174.073 231.397 174.084C231.521 174.067 231.647 174.079 231.766 174.12Z" fill="#263238"/>
<path d="M231.886 173.656C231.767 173.733 231.628 173.775 231.485 173.776C231.349 173.794 231.21 173.775 231.084 173.72C231.216 173.698 231.351 173.687 231.485 173.688C231.618 173.664 231.752 173.654 231.886 173.656Z" fill="#263238"/>
<path d="M230.602 174.472C230.452 174.5 230.299 174.5 230.149 174.472C229.987 174.452 229.827 174.418 229.671 174.368C229.575 174.341 229.482 174.304 229.394 174.256C229.341 174.225 229.301 174.175 229.282 174.116C229.274 174.083 229.277 174.048 229.289 174.016C229.301 173.984 229.322 173.956 229.35 173.936C229.461 173.882 229.583 173.854 229.706 173.853C229.83 173.852 229.952 173.878 230.064 173.93C230.176 173.981 230.275 174.057 230.355 174.152C230.434 174.246 230.491 174.357 230.522 174.476C230.53 174.516 230.53 174.556 230.522 174.596C230.476 174.451 230.406 174.316 230.313 174.196C230.206 174.076 230.067 173.99 229.912 173.948C229.734 173.891 229.541 173.905 229.374 173.988C229.306 174.04 229.334 174.124 229.41 174.172C229.492 174.216 229.578 174.252 229.667 174.28C229.818 174.329 229.972 174.368 230.129 174.396C230.43 174.46 230.602 174.46 230.602 174.472Z" fill="#263238"/>
<path d="M230.486 174.496C230.427 174.403 230.407 174.291 230.43 174.184C230.444 174.066 230.487 173.954 230.554 173.856C230.592 173.789 230.646 173.733 230.711 173.692C230.776 173.652 230.851 173.628 230.927 173.624C230.973 173.635 231.013 173.662 231.039 173.7C231.065 173.739 231.075 173.786 231.068 173.832C231.058 173.904 231.032 173.972 230.991 174.032C230.931 174.131 230.859 174.224 230.779 174.308C230.709 174.388 230.621 174.449 230.522 174.488C230.522 174.488 230.61 174.408 230.735 174.264C230.807 174.181 230.87 174.092 230.923 173.996C230.983 173.9 231.028 173.728 230.923 173.708C230.819 173.688 230.699 173.812 230.63 173.9C230.566 173.987 230.523 174.086 230.502 174.192C230.486 174.292 230.48 174.394 230.486 174.496Z" fill="#263238"/>
<path d="M238.075 174C238.075 174 237.874 174 237.557 174.02C237.144 174.069 236.754 174.233 236.43 174.492C236.105 174.752 235.861 175.097 235.723 175.488C235.619 175.788 235.611 175.992 235.595 175.988C235.579 175.984 235.595 175.936 235.595 175.848C235.605 175.719 235.629 175.592 235.667 175.468C235.795 175.059 236.04 174.696 236.373 174.424C236.711 174.157 237.12 173.997 237.549 173.964C237.683 173.948 237.817 173.948 237.951 173.964C237.993 173.971 238.035 173.983 238.075 174Z" fill="#263238"/>
<path d="M234.7 175.352C234.363 175.43 234.018 175.464 233.672 175.452C233.329 175.469 232.984 175.44 232.649 175.364C232.649 175.34 233.106 175.364 233.672 175.364C234.238 175.364 234.696 175.328 234.7 175.352Z" fill="#263238"/>
<path d="M236.072 175.34C236.072 175.34 236.036 175.436 235.988 175.54C235.94 175.644 235.916 175.74 235.892 175.736C235.868 175.732 235.856 175.628 235.912 175.504C235.968 175.38 236.056 175.32 236.072 175.34Z" fill="#263238"/>
<path d="M236.59 174.696C236.59 174.696 236.562 174.784 236.49 174.856C236.417 174.928 236.345 174.976 236.325 174.96C236.305 174.944 236.353 174.872 236.425 174.796C236.498 174.72 236.57 174.676 236.59 174.696Z" fill="#263238"/>
<path d="M237.329 174.4C237.329 174.424 237.232 174.424 237.128 174.46C237.024 174.496 236.951 174.552 236.931 174.536C236.911 174.52 236.971 174.424 237.1 174.38C237.228 174.336 237.337 174.376 237.329 174.4Z" fill="#263238"/>
<path d="M237.854 174.256C237.854 174.28 237.826 174.316 237.766 174.336C237.706 174.356 237.654 174.36 237.646 174.336C237.638 174.312 237.678 174.276 237.734 174.256C237.79 174.236 237.846 174.236 237.854 174.256Z" fill="#263238"/>
<path d="M247.579 173.744L247.314 173.156L253.619 170L254.73 172.4L254.329 172.604C252.607 173.496 245.524 177.024 244.183 177.2C242.702 177.412 247.579 173.744 247.579 173.744Z" fill="#455A64"/>
<path d="M254.755 172.228L254.65 172.292L254.341 172.452L253.201 173.028C252.238 173.504 250.898 174.148 249.401 174.828C247.904 175.508 246.531 176.088 245.536 176.5L244.352 176.976L244.031 177.1C243.994 177.117 243.955 177.129 243.915 177.136L244.023 177.084L244.34 176.944L245.512 176.444C246.503 176.02 247.868 175.428 249.365 174.748C250.862 174.068 252.206 173.436 253.177 172.972L254.325 172.424L254.642 172.276L254.755 172.228Z" fill="#263238"/>
<path d="M246.226 176.296C246.087 176.127 245.93 175.974 245.757 175.84C245.568 175.729 245.368 175.64 245.159 175.576C245.389 175.573 245.615 175.64 245.806 175.769C245.997 175.898 246.143 176.082 246.226 176.296Z" fill="#263238"/>
<path d="M247.675 174.488C247.675 174.488 247.522 174.44 247.362 174.336C247.201 174.232 247.085 174.132 247.097 174.112C247.109 174.092 247.25 174.16 247.41 174.264C247.571 174.368 247.687 174.468 247.675 174.488Z" fill="#263238"/>
<path d="M248.068 174C248.068 174.02 247.932 174 247.775 173.952C247.619 173.904 247.502 173.844 247.506 173.82C247.608 173.81 247.71 173.827 247.803 173.868C247.956 173.904 248.076 173.96 248.068 174Z" fill="#263238"/>
<path d="M248.124 173.232C248.124 173.256 247.992 173.34 247.807 173.428C247.701 173.492 247.582 173.531 247.458 173.544C247.458 173.52 247.591 173.436 247.771 173.348C247.879 173.285 248 173.245 248.124 173.232Z" fill="#263238"/>
<path d="M248.044 172.76C248.044 172.76 247.928 172.92 247.719 173.036C247.601 173.116 247.461 173.158 247.318 173.156C247.433 173.079 247.555 173.013 247.683 172.96C247.88 172.852 248.024 172.74 248.044 172.76Z" fill="#263238"/>
<path d="M247.221 174.032C247.099 174.116 246.963 174.178 246.82 174.216C246.662 174.262 246.501 174.295 246.338 174.316C246.24 174.328 246.14 174.328 246.041 174.316C245.979 174.311 245.922 174.283 245.881 174.236C245.862 174.207 245.852 174.174 245.852 174.14C245.852 174.106 245.862 174.073 245.881 174.044C246.003 173.897 246.172 173.796 246.361 173.76C246.549 173.723 246.744 173.753 246.912 173.844C247.012 173.896 247.099 173.968 247.169 174.056C247.217 174.12 247.237 174.16 247.233 174.164C247.134 174.054 247.016 173.963 246.884 173.896C246.743 173.83 246.585 173.806 246.431 173.828C246.339 173.837 246.25 173.865 246.168 173.909C246.087 173.953 246.015 174.012 245.957 174.084C245.913 174.16 245.957 174.224 246.065 174.236C246.158 174.244 246.25 174.244 246.342 174.236C246.502 174.22 246.66 174.192 246.816 174.152C247.045 174.088 247.221 174.02 247.221 174.032Z" fill="#263238"/>
<path d="M247.109 174.1C247.02 174.037 246.957 173.943 246.933 173.836C246.897 173.723 246.889 173.604 246.908 173.488C246.915 173.411 246.942 173.337 246.985 173.274C247.029 173.21 247.088 173.158 247.157 173.124C247.258 173.092 247.49 173.296 247.506 173.372C247.523 173.448 247.39 173.408 247.382 173.472C247.369 173.586 247.342 173.697 247.302 173.804C247.273 173.907 247.217 174.001 247.141 174.076C247.141 174.076 247.189 173.968 247.246 173.788C247.274 173.682 247.295 173.573 247.306 173.464C247.306 173.352 247.306 173.18 247.177 173.208C247.049 173.236 247.013 173.392 246.985 173.504C246.96 173.608 246.96 173.716 246.985 173.82C247.018 173.917 247.06 174.01 247.109 174.1Z" fill="#263238"/>
<path d="M253.831 170.544C253.831 170.544 253.639 170.612 253.366 170.776C253.009 170.989 252.719 171.296 252.527 171.664C252.341 172.035 252.262 172.451 252.298 172.864C252.322 173.184 252.399 173.368 252.383 173.376C252.357 173.336 252.336 173.293 252.322 173.248C252.283 173.126 252.254 173 252.238 172.872C252.181 172.446 252.255 172.013 252.451 171.63C252.646 171.247 252.954 170.932 253.334 170.728C253.447 170.665 253.567 170.614 253.691 170.576C253.736 170.559 253.783 170.548 253.831 170.544Z" fill="#263238"/>
<path d="M251.307 173.16C250.741 173.552 250.109 173.839 249.441 174.008C249.441 173.984 249.862 173.824 250.376 173.608C250.89 173.392 251.295 173.14 251.307 173.16Z" fill="#263238"/>
<path d="M252.555 172.588C252.575 172.588 252.555 172.688 252.555 172.804C252.555 172.92 252.555 173.016 252.555 173.024C252.555 173.032 252.475 172.936 252.475 172.804C252.475 172.672 252.535 172.576 252.555 172.588Z" fill="#263238"/>
<path d="M252.76 171.788C252.78 171.788 252.76 171.88 252.736 171.976C252.712 172.072 252.651 172.144 252.631 172.136C252.611 172.128 252.631 172.044 252.655 171.948C252.679 171.852 252.736 171.78 252.76 171.788Z" fill="#263238"/>
<path d="M253.314 171.2C253.314 171.224 253.233 171.26 253.153 171.336C253.073 171.412 253.029 171.492 253.009 171.484C252.989 171.476 253.009 171.364 253.097 171.272C253.185 171.18 253.31 171.2 253.314 171.2Z" fill="#263238"/>
<path d="M253.735 170.872C253.735 170.872 253.735 170.936 253.687 170.98C253.639 171.024 253.595 171.048 253.579 171.032C253.562 171.016 253.579 170.968 253.627 170.924C253.675 170.88 253.719 170.856 253.735 170.872Z" fill="#263238"/>
<path d="M245.841 89.456L244.669 75.176L250.689 75.284C250.689 75.284 250.966 73.176 250.079 68.56C249.533 65.728 247.643 63.992 245.52 62.96V62.92L245.335 62.872C243.587 62.09 241.721 61.6047 239.813 61.436L232.408 61.52C232.408 61.52 226.753 60.8 223.635 64.836C222.431 66.384 218.695 76.98 218.695 76.98L227.584 81.244L226.753 75.368C226.753 75.368 226.922 79.628 227.468 80.968C227.769 81.72 228.672 84.056 228.672 84.056L228.555 91.104L245.841 89.456Z" fill="#E59C9C"/>
<path d="M241.759 73.104L240.66 77.768H251.026L250.344 69.944L241.759 73.104Z" fill="#E59C9C"/>
<path d="M251.026 77.768C250.573 77.6848 250.114 77.6393 249.653 77.632C248.803 77.5839 247.647 77.5399 246.33 77.5479C245.014 77.5559 243.854 77.6119 243.003 77.676C242.543 77.6919 242.085 77.7481 241.635 77.844C242.094 77.8804 242.556 77.8804 243.015 77.844C243.862 77.816 245.022 77.784 246.33 77.78C247.639 77.776 248.799 77.78 249.649 77.8C250.108 77.8256 250.569 77.8149 251.026 77.768Z" fill="#263238"/>
<path d="M241.31 69.908C241.26 70.3061 241.25 70.7079 241.278 71.108C241.278 71.84 241.31 72.848 241.354 73.964C241.398 75.08 241.45 76.092 241.498 76.82C241.5 77.2233 241.543 77.6254 241.627 78.02C241.676 77.622 241.687 77.2201 241.659 76.82C241.659 76.088 241.627 75.076 241.583 73.96C241.539 72.844 241.486 71.836 241.438 71.104C241.437 70.702 241.393 70.3013 241.31 69.908Z" fill="#263238"/>
<g opacity="0.3">
<path opacity="0.3" d="M231.878 73.948C231.878 73.948 234.182 90.976 240.66 90.524C240.66 90.524 243.577 90.492 244.512 88.56V87.8L231.878 73.948Z" fill="white"/>
</g>
<g opacity="0.3">
<path opacity="0.3" d="M241.31 70.912L240.07 79.26L240.872 80.724L242.197 77.86L241.635 77.844L241.31 70.912Z" fill="white"/>
</g>
<path d="M228.636 84.064C228.559 83.9394 228.499 83.8048 228.459 83.664C228.359 83.404 228.226 83.024 228.058 82.548C227.656 81.3077 227.325 80.0457 227.066 78.768C226.809 77.4896 226.645 76.1942 226.577 74.892C226.553 74.392 226.545 73.988 226.553 73.692C226.542 73.5474 226.552 73.4021 226.581 73.26C226.613 73.26 226.637 73.876 226.721 74.86C226.834 76.1504 227.018 77.4336 227.271 78.704C227.568 80.192 227.925 81.524 228.198 82.48C228.327 82.924 228.435 83.304 228.523 83.616C228.578 83.7604 228.616 83.9108 228.636 84.064Z" fill="#263238"/>
<path d="M231.252 88.9561C231.196 88.9561 231.036 88.6081 230.895 88.1561C230.774 87.8791 230.721 87.5776 230.739 87.2761C230.916 87.5205 231.038 87.8002 231.096 88.0961C231.211 88.3677 231.265 88.6614 231.252 88.9561Z" fill="#263238"/>
<path d="M232.147 88.892C231.844 88.0897 231.831 87.2068 232.111 86.3961C232.143 86.8115 232.143 87.2286 232.111 87.6441C232.155 88.0585 232.167 88.4757 232.147 88.892Z" fill="#263238"/>
<path d="M227.765 81.44C227.737 81.488 225.67 80.512 223.145 79.256C220.621 78 218.594 76.936 218.618 76.884C218.642 76.832 220.713 77.812 223.238 79.068C225.762 80.324 227.789 81.388 227.765 81.44Z" fill="#263238"/>
<path d="M231.409 62.9C231.453 60.8759 231.465 58.7479 231.465 58.7479C231.465 58.7479 228.86 58.248 228.407 54.8319C227.973 51.5759 229.185 43.9319 229.185 43.9319C232.99 42.4999 236.943 43.7999 239.548 46.8719L238.902 63.3C238.826 65.208 237.12 66.664 235.073 66.568C233.002 66.468 231.365 64.828 231.409 62.9Z" fill="#B78876"/>
<path d="M228.985 50.04C228.981 50.1522 229.021 50.2614 229.095 50.3454C229.17 50.4295 229.274 50.4819 229.386 50.492C229.443 50.4975 229.501 50.4914 229.555 50.474C229.61 50.4566 229.66 50.4284 229.703 50.3909C229.746 50.3535 229.781 50.3077 229.806 50.2563C229.831 50.2049 229.845 50.149 229.848 50.0921C229.851 49.9803 229.811 49.8716 229.737 49.7882C229.662 49.7048 229.558 49.6532 229.446 49.6441C229.389 49.6354 229.331 49.6392 229.275 49.6551C229.22 49.6711 229.168 49.6988 229.124 49.7364C229.081 49.774 229.045 49.8206 229.021 49.873C228.997 49.9254 228.985 49.9824 228.985 50.04Z" fill="#263238"/>
<path d="M228.824 49.4681C228.876 49.5241 229.226 49.2881 229.687 49.3041C230.149 49.3201 230.49 49.5601 230.546 49.5041C230.602 49.4481 230.522 49.3761 230.373 49.2601C230.172 49.115 229.931 49.0353 229.683 49.0321C229.439 49.0228 229.198 49.093 228.997 49.2321C228.848 49.3401 228.796 49.4401 228.824 49.4681Z" fill="#263238"/>
<path d="M233.765 50.3361C233.76 50.4485 233.799 50.5582 233.874 50.6425C233.949 50.7267 234.054 50.7789 234.166 50.7881C234.224 50.7968 234.282 50.7929 234.338 50.7767C234.394 50.7606 234.446 50.7325 234.49 50.6944C234.534 50.6564 234.569 50.6093 234.592 50.5564C234.616 50.5035 234.628 50.4461 234.628 50.3881C234.632 50.2761 234.593 50.1668 234.518 50.0832C234.443 49.9996 234.338 49.9483 234.226 49.9401C234.169 49.9314 234.111 49.9352 234.055 49.9511C234 49.9671 233.948 49.9948 233.904 50.0324C233.86 50.07 233.825 50.1166 233.801 50.169C233.777 50.2214 233.765 50.2784 233.765 50.3361Z" fill="#263238"/>
<path d="M233.733 49.764C233.785 49.824 234.134 49.588 234.596 49.6C235.057 49.612 235.398 49.856 235.458 49.8C235.519 49.744 235.43 49.672 235.282 49.56C235.084 49.4111 234.843 49.3298 234.596 49.328C234.35 49.3207 234.109 49.3907 233.905 49.528C233.761 49.636 233.709 49.736 233.733 49.764Z" fill="#263238"/>
<path d="M231.935 53.2C231.688 53.1156 231.432 53.0632 231.172 53.044C231.052 53.044 230.939 53 230.923 52.92C230.914 52.795 230.945 52.6702 231.012 52.564L231.389 51.664C231.74 50.8991 232.028 50.1072 232.252 49.296C231.841 50.031 231.489 50.7974 231.2 51.588C231.076 51.904 230.951 52.208 230.835 52.496C230.757 52.6389 230.732 52.8044 230.763 52.964C230.778 53.0074 230.804 53.0465 230.837 53.0785C230.871 53.1104 230.911 53.1342 230.955 53.148C231.022 53.1672 231.091 53.178 231.16 53.18C231.416 53.2193 231.677 53.2261 231.935 53.2Z" fill="#263238"/>
<path d="M231.465 58.748C233.071 58.8121 234.663 58.4313 236.064 57.648C236.064 57.648 234.896 59.956 231.489 59.552L231.465 58.748Z" fill="#A36957"/>
<path d="M235.242 48.4C235.145 48.548 234.784 48.484 234.383 48.4C233.981 48.316 233.628 48.248 233.58 48.076C233.532 47.904 233.953 47.676 234.491 47.784C235.029 47.892 235.338 48.272 235.242 48.4Z" fill="#263238"/>
<path d="M230.558 47.72C230.522 47.892 230.137 47.956 229.695 47.976C229.254 47.996 228.864 47.976 228.812 47.8C228.76 47.624 229.133 47.376 229.667 47.352C230.201 47.328 230.594 47.556 230.558 47.72Z" fill="#263238"/>
<path d="M231.943 54.324C231.892 54.3121 231.839 54.3174 231.791 54.3391C231.744 54.3609 231.706 54.3978 231.682 54.4441C231.659 54.4848 231.647 54.5309 231.648 54.5776C231.648 54.6243 231.661 54.6701 231.685 54.7104C231.708 54.7507 231.742 54.7841 231.783 54.8073C231.824 54.8305 231.87 54.8427 231.917 54.8427C231.963 54.8427 232.01 54.8305 232.05 54.8073C232.091 54.7841 232.125 54.7507 232.148 54.7104C232.172 54.6701 232.185 54.6243 232.185 54.5776C232.186 54.5309 232.174 54.4848 232.151 54.4441C232.123 54.3903 232.076 54.348 232.02 54.324C231.964 54.3 231.901 54.2958 231.842 54.3121" fill="#A36957"/>
<path d="M232.051 54.372C232.051 54.352 231.975 54.236 231.77 54.28C231.709 54.2959 231.653 54.3276 231.608 54.3718C231.563 54.416 231.53 54.4713 231.513 54.532C231.492 54.6086 231.494 54.6899 231.519 54.7654C231.544 54.8409 231.591 54.9073 231.654 54.956C231.72 55.0016 231.799 55.026 231.88 55.026C231.961 55.026 232.04 55.0016 232.107 54.956C232.161 54.9202 232.202 54.8699 232.228 54.8111C232.254 54.7522 232.262 54.6873 232.252 54.624C232.212 54.412 232.055 54.38 232.047 54.408C232.039 54.436 232.103 54.508 232.091 54.632C232.088 54.6627 232.078 54.6922 232.061 54.718C232.045 54.7438 232.022 54.7651 231.995 54.78C231.964 54.7979 231.928 54.8074 231.892 54.8074C231.857 54.8074 231.821 54.7979 231.79 54.78C231.762 54.7563 231.741 54.7259 231.728 54.6915C231.715 54.6572 231.712 54.6201 231.718 54.584C231.722 54.5524 231.735 54.5224 231.754 54.4966C231.773 54.4708 231.797 54.45 231.826 54.436C231.939 54.368 232.039 54.4 232.051 54.372Z" fill="#263238"/>
<path d="M237.991 50.884C237.589 51.82 236.594 52.544 236.731 53.556C236.819 54.208 237.24 54.816 237.16 55.472C237.056 56.272 236.201 56.864 236.076 57.684C235.928 58.688 236.911 59.468 237.301 60.404C237.874 61.772 237.144 63.308 237.124 64.804C237.148 65.9398 237.584 67.0286 238.351 67.8685C239.118 68.7084 240.165 69.2426 241.298 69.372C242.213 69.448 243.244 69.172 243.706 68.388C244.107 67.74 244.019 66.916 244.252 66.2C244.605 65.128 245.628 64.344 245.857 63.24C246.258 61.24 243.81 59.56 243.971 57.512C244.039 56.636 244.581 55.876 244.809 55.028C244.955 54.4707 244.966 53.887 244.842 53.3245C244.718 52.7621 244.462 52.2369 244.095 51.792C243.489 51.076 242.614 50.592 242.088 49.824C241.506 48.94 241.486 47.824 241.286 46.78C241.016 45.5111 240.428 44.3309 239.577 43.3499C238.726 42.3688 237.639 41.6189 236.418 41.1702C235.197 40.7216 233.881 40.5887 232.595 40.7842C231.308 40.9797 230.093 41.4971 229.061 42.288C229.061 42.288 228.479 44.924 231.196 45.368C233.913 45.812 235.169 45.3 235.474 46.384C235.403 46.8306 235.438 47.2878 235.577 47.7181C235.717 48.1485 235.957 48.5398 236.277 48.86C237.385 50.052 238.44 49.796 237.991 50.884Z" fill="#263238"/>
<path d="M242.305 69.1681C242.221 69.171 242.138 69.1629 242.056 69.1441C241.821 69.1025 241.59 69.0396 241.366 68.9561C240.537 68.6394 239.81 68.1044 239.263 67.4081C238.879 66.9276 238.578 66.3869 238.372 65.8081C238.138 65.1489 238.014 64.4555 238.007 63.7561C237.998 62.9852 238.096 62.2168 238.296 61.4721C238.405 61.0788 238.539 60.6927 238.697 60.3161C238.863 59.9412 239.009 59.5581 239.135 59.1681C239.245 58.7838 239.245 58.3764 239.135 57.9921C239.017 57.6138 238.865 57.2469 238.681 56.8961C238.495 56.5482 238.338 56.1856 238.212 55.8121C238.088 55.4424 238.059 55.0478 238.127 54.6641C238.288 53.9121 238.745 53.3521 239.018 52.7801C239.278 52.2506 239.402 51.6651 239.379 51.0761C239.343 50.2141 239.029 49.3867 238.484 48.7161C238.273 48.4812 238.047 48.2607 237.806 48.0561C238.088 48.2137 238.339 48.4195 238.549 48.6641C239.133 49.3337 239.478 50.178 239.528 51.0641C239.561 51.6788 239.44 52.292 239.175 52.8481C238.898 53.4401 238.452 54.0041 238.316 54.6921C238.179 55.3801 238.504 56.1041 238.862 56.8001C239.056 57.161 239.215 57.5402 239.335 57.9321C239.454 58.3506 239.454 58.7936 239.335 59.2121C239.202 59.6156 239.048 60.0121 238.874 60.4001C238.716 60.7685 238.582 61.1466 238.472 61.5321C238.273 62.258 238.175 63.0076 238.179 63.7601C238.167 65.0417 238.582 66.2911 239.359 67.3121C239.879 67.9997 240.571 68.539 241.366 68.8761C241.964 69.1081 242.309 69.1441 242.305 69.1681Z" fill="#455A64"/>
<path d="M241.904 48.984C241.708 49.0345 241.508 49.064 241.306 49.072C240.755 49.1307 240.199 49.1159 239.652 49.028C239.238 48.9669 238.84 48.8239 238.481 48.6076C238.123 48.3912 237.812 48.1058 237.565 47.768C237.336 47.3407 237.153 46.8901 237.019 46.424C236.848 45.9585 236.526 45.563 236.104 45.3C235.225 44.744 234.194 44.676 233.295 44.568C232.466 44.5268 231.661 44.2763 230.955 43.84C230.483 43.528 230.142 43.0541 229.996 42.508C229.961 42.36 229.952 42.2072 229.968 42.056C229.968 41.952 229.992 41.9 230 41.9C230.005 42.0981 230.03 42.2952 230.076 42.488C230.243 42.9986 230.583 43.4347 231.04 43.72C231.732 44.1227 232.514 44.3481 233.315 44.376C234.214 44.48 235.282 44.532 236.221 45.124C236.68 45.4117 237.031 45.8438 237.216 46.352C237.342 46.8063 237.515 47.2461 237.734 47.664C238.201 48.3031 238.902 48.734 239.684 48.864C240.213 48.9621 240.752 48.9983 241.29 48.972C241.494 48.9606 241.7 48.9646 241.904 48.984Z" fill="#455A64"/>
<path d="M240.909 45.728C240.757 45.7784 240.598 45.8014 240.439 45.796C239.691 45.801 238.971 45.5139 238.432 44.996C238.187 44.7506 237.977 44.4719 237.81 44.168C237.449 43.56 237.1 42.812 236.349 42.5C235.626 42.2582 234.856 42.1911 234.102 42.304C233.466 42.3931 232.82 42.3931 232.184 42.304C231.741 42.2428 231.324 42.06 230.98 41.776C230.891 41.6987 230.812 41.6099 230.747 41.512C230.699 41.4427 230.679 41.4067 230.687 41.404C230.687 41.404 230.799 41.532 231.032 41.712C231.375 41.9553 231.774 42.1093 232.192 42.16C232.816 42.2302 233.448 42.2195 234.07 42.128C234.857 41.9999 235.664 42.0686 236.418 42.328C236.805 42.5016 237.137 42.7784 237.377 43.128C237.588 43.4398 237.783 43.763 237.959 44.096C238.117 44.3867 238.313 44.6557 238.541 44.896C238.742 45.0992 238.974 45.2706 239.227 45.404C239.6 45.5983 240.011 45.7114 240.431 45.736C240.74 45.732 240.905 45.708 240.909 45.728Z" fill="#455A64"/>
<path d="M243.501 68.304C243.481 68.304 243.61 68.04 243.758 67.544C243.959 66.8477 244.048 66.1241 244.023 65.4C243.994 64.3281 243.7 63.2799 243.168 62.348C242.875 61.824 242.43 61.356 242.064 60.78C241.871 60.4866 241.735 60.1596 241.663 59.816C241.6 59.4544 241.63 59.0827 241.751 58.736C241.976 58.044 242.377 57.464 242.466 56.828C242.554 56.192 242.249 55.628 241.944 55.096C241.787 54.8371 241.643 54.5701 241.515 54.296C241.397 54.0302 241.32 53.7484 241.286 53.46C241.248 52.9517 241.264 52.4409 241.334 51.936C241.462 51.2223 241.396 50.4873 241.141 49.808C241.028 49.5701 240.867 49.3577 240.668 49.184C240.668 49.184 240.688 49.184 240.716 49.208C240.763 49.2315 240.807 49.2626 240.844 49.3C241.001 49.4303 241.129 49.5926 241.218 49.776C241.508 50.4611 241.598 51.214 241.478 51.948C241.423 52.4435 241.416 52.9432 241.458 53.44C241.557 53.9989 241.779 54.5289 242.109 54.992C242.28 55.2623 242.426 55.5475 242.546 55.844C242.672 56.1641 242.714 56.5113 242.666 56.852C242.57 57.552 242.157 58.144 241.948 58.796C241.838 59.1106 241.81 59.4474 241.864 59.776C241.934 60.0938 242.062 60.3961 242.241 60.668C242.582 61.224 243.044 61.7 243.337 62.248C243.874 63.2114 244.161 64.2937 244.171 65.396C244.184 66.1339 244.07 66.8685 243.834 67.568C243.77 67.7573 243.692 67.9418 243.601 68.12C243.577 68.1858 243.543 68.2478 243.501 68.304Z" fill="#455A64"/>
<path d="M227.155 142.836C227.155 142.836 224.45 117.3 224.293 107.864C224.137 98.428 228.552 89.116 228.552 89.116L245.841 88.4C245.841 88.4 249.26 97.972 249.32 102C249.441 109.816 247.238 117.532 247.49 123.732L248.068 142.852" fill="#263238"/>
<path d="M248.65 111.44C248.56 111.518 248.465 111.59 248.365 111.656L248.209 111.764L248.04 111.928C247.891 112.056 247.757 112.2 247.639 112.356C247.081 113.036 246.676 114.256 246.286 115.772C246.087 116.613 245.794 117.429 245.411 118.204C245.295 118.416 245.161 118.618 245.01 118.808C244.938 118.904 244.87 119.008 244.785 119.1L244.52 119.364C244.141 119.717 243.7 119.999 243.22 120.196C242.253 120.62 241.157 120.82 240.162 121.32C239.142 121.867 238.354 122.761 237.943 123.84C237.453 124.924 237.14 126.06 236.739 127.124C236.337 128.188 235.795 129.204 234.933 129.852C234.108 130.423 233.128 130.732 232.123 130.736C231.192 130.792 230.329 130.764 229.555 130.88C228.858 130.952 228.191 131.203 227.62 131.608C227.203 131.933 226.891 132.372 226.721 132.872C226.614 133.187 226.59 133.525 226.653 133.852C226.701 134.076 226.761 134.184 226.749 134.188C226.685 134.088 226.639 133.977 226.613 133.86C226.528 133.526 226.539 133.176 226.645 132.848C226.804 132.324 227.119 131.859 227.548 131.516C228.133 131.076 228.826 130.8 229.555 130.716C230.357 130.588 231.212 130.604 232.131 130.544C233.106 130.538 234.057 130.236 234.856 129.68C235.667 128.974 236.266 128.057 236.586 127.032C236.987 125.98 237.28 124.84 237.79 123.736C238.222 122.613 239.046 121.683 240.11 121.116C241.145 120.604 242.241 120.408 243.184 120C243.646 119.81 244.07 119.539 244.436 119.2L244.689 118.948C244.769 118.86 244.837 118.76 244.91 118.668C245.051 118.486 245.176 118.292 245.283 118.088C245.667 117.324 245.965 116.519 246.17 115.688C246.571 114.176 247.009 112.94 247.599 112.256C247.716 112.1 247.851 111.958 248 111.832C248.064 111.776 248.12 111.72 248.177 111.676L248.341 111.572C248.441 111.522 248.545 111.478 248.65 111.44Z" fill="#FAFAFA"/>
<path d="M248.754 99.624C248.773 99.7363 248.781 99.8501 248.778 99.964C248.777 100.294 248.737 100.623 248.658 100.944C248.312 102.114 247.633 103.159 246.704 103.952C246.09 104.514 245.417 105.009 244.697 105.428C243.922 105.884 243.067 106.32 242.189 106.816C241.265 107.309 240.406 107.912 239.628 108.612C238.83 109.401 238.174 110.319 237.686 111.328C237.193 112.35 236.632 113.338 236.004 114.284C235.685 114.725 235.316 115.127 234.904 115.484C234.498 115.828 234.052 116.122 233.576 116.36C232.714 116.782 231.815 117.126 230.891 117.388C230.032 117.652 229.23 117.888 228.531 118.188C227.897 118.439 227.294 118.761 226.733 119.148C226.311 119.44 225.932 119.788 225.605 120.184C225.332 120.527 225.105 120.903 224.927 121.304C224.956 121.193 224.993 121.085 225.04 120.98C225.171 120.678 225.34 120.393 225.541 120.132C225.861 119.72 226.24 119.356 226.665 119.052C227.229 118.652 227.836 118.316 228.475 118.052C229.248 117.738 230.037 117.464 230.839 117.232C231.75 116.964 232.636 116.619 233.488 116.2C233.939 115.965 234.363 115.681 234.752 115.352C235.148 115.001 235.503 114.606 235.811 114.176C236.43 113.235 236.987 112.254 237.477 111.24C237.98 110.209 238.659 109.272 239.484 108.472C240.275 107.762 241.151 107.152 242.092 106.656C242.975 106.164 243.83 105.736 244.605 105.284C245.323 104.879 245.995 104.399 246.611 103.852C247.533 103.083 248.218 102.069 248.586 100.928C248.689 100.501 248.745 100.063 248.754 99.624Z" fill="#FAFAFA"/>
<path d="M224.382 109.2C224.366 109.175 224.353 109.148 224.345 109.12C224.315 109.043 224.29 108.964 224.269 108.884C224.2 108.566 224.214 108.235 224.309 107.924C224.534 107.124 225.421 106.096 226.85 105.588C227.564 105.344 228.371 105.188 229.214 104.98C229.913 104.864 230.576 104.584 231.144 104.161C231.713 103.739 232.173 103.187 232.484 102.552C232.713 102.086 232.912 101.606 233.082 101.116C233.396 100.051 233.823 99.0228 234.355 98.048C234.964 97.0898 235.889 96.3728 236.971 96.02C237.956 95.7017 238.96 95.4478 239.977 95.26C240.885 95.0862 241.765 94.7874 242.59 94.372C243.289 93.974 243.892 93.4278 244.356 92.772C245.041 91.8252 245.432 90.6985 245.48 89.532C245.481 89.1039 245.453 88.6762 245.395 88.252C245.517 88.6676 245.572 89.0994 245.56 89.532C245.544 90.7237 245.166 91.8827 244.476 92.856C244.006 93.5334 243.391 94.0978 242.674 94.508C241.838 94.9389 240.945 95.2499 240.022 95.432C239.013 95.6227 238.019 95.8779 237.044 96.196C236.005 96.5352 235.117 97.2239 234.531 98.144C234.008 99.1056 233.587 100.119 233.275 101.168C233.102 101.667 232.897 102.155 232.661 102.628C232.423 103.083 232.12 103.5 231.762 103.868C231.057 104.509 230.19 104.944 229.254 105.128C228.403 105.344 227.6 105.48 226.898 105.712C225.505 106.184 224.622 107.156 224.386 107.932C224.288 108.231 224.262 108.549 224.309 108.86C224.343 108.971 224.367 109.085 224.382 109.2Z" fill="#FAFAFA"/>
<path d="M247.269 130.8C247.286 130.883 247.295 130.967 247.298 131.052C247.305 131.294 247.28 131.537 247.221 131.772C246.969 132.639 246.436 133.399 245.704 133.932C245.216 134.32 244.676 134.638 244.099 134.876C243.485 135.136 242.807 135.344 242.092 135.564C241.351 135.78 240.625 136.047 239.921 136.364C239.19 136.712 238.534 137.2 237.991 137.8C237.405 138.408 236.899 139.076 236.337 139.668C235.8 140.241 235.175 140.727 234.487 141.108C233.315 141.745 232.005 142.086 230.67 142.1C229.777 142.11 228.888 141.962 228.046 141.664C227.817 141.586 227.594 141.491 227.379 141.38C227.301 141.348 227.227 141.306 227.159 141.256C227.24 141.278 227.319 141.306 227.395 141.34C227.616 141.434 227.841 141.517 228.07 141.588C228.911 141.851 229.789 141.974 230.67 141.952C231.975 141.918 233.253 141.571 234.395 140.94C235.062 140.564 235.667 140.087 236.189 139.528C236.739 138.944 237.24 138.28 237.838 137.656C238.413 137.034 239.106 136.531 239.877 136.176C240.592 135.858 241.328 135.591 242.08 135.376C242.787 135.16 243.461 134.976 244.087 134.712C244.647 134.484 245.173 134.181 245.652 133.812C246.371 133.306 246.907 132.582 247.181 131.748C247.24 131.436 247.27 131.118 247.269 130.8Z" fill="#FAFAFA"/>
<path d="M245.299 77.784L241.952 77.864C241.823 78.5367 241.567 79.1788 241.197 79.756C238.388 74.916 236.233 68.436 235.695 65.832C235.775 65.572 235.868 65.284 235.984 64.964C236.068 64.478 236.053 63.9802 235.94 63.5C235.844 62.92 235.683 62.14 235.635 61.78C235.486 60.676 235.306 60.504 234.921 60.628C234.399 60.8 235.137 63.72 234.708 63.784C234.475 63.816 234.194 62.816 234.114 61.996C234.034 61.176 233.656 58.648 233.387 58.48C232.986 58.232 232.637 58.624 232.741 59.44C232.846 60.256 232.97 62.736 232.537 62.772C232.103 62.808 231.734 58.616 231.734 58.616C231.734 58.616 231.802 57.704 231.297 57.724C230.39 57.764 231.1 62.18 231.176 62.6C231.232 62.888 230.775 62.944 230.719 62.628C230.662 62.312 230.454 58.44 229.515 58.472C228.8 58.472 230.064 62.108 229.663 62.948C229.262 63.788 228.989 60.1 228.311 60.148C228.058 60.168 227.869 60.216 228.335 62.3C228.781 63.9558 229.316 65.5862 229.94 67.184C231.016 72.964 235.735 91.456 243.132 88.072C247.274 86.176 248.951 77.784 248.951 77.784H245.299Z" fill="#B78876"/>
<path d="M231.032 62.88C231.063 62.888 231.096 62.888 231.128 62.88C231.176 62.8653 231.218 62.8338 231.245 62.7913C231.272 62.7488 231.283 62.698 231.276 62.648C231.276 62.4 231.228 62.04 231.172 61.572C231.078 61.008 231.016 60.439 230.987 59.868C230.987 59.532 230.987 59.172 231.008 58.792C231.013 58.5988 231.034 58.4063 231.068 58.216C231.1 58.036 231.22 57.816 231.361 57.852H231.385C231.525 57.852 231.638 57.956 231.682 58.124C231.731 58.2981 231.75 58.4794 231.738 58.66C231.821 59.7802 231.964 60.8952 232.167 62C232.2 62.148 232.232 62.3 232.28 62.452C232.301 62.5298 232.328 62.606 232.36 62.68C232.381 62.7212 232.403 62.7613 232.428 62.8C232.446 62.8292 232.471 62.8539 232.5 62.8719C232.529 62.89 232.563 62.901 232.597 62.904C232.655 62.8976 232.711 62.874 232.756 62.8363C232.801 62.7985 232.833 62.7483 232.85 62.692C232.884 62.6138 232.91 62.5319 232.926 62.448C232.957 62.2868 232.979 62.1238 232.99 61.96C233.027 61.2935 233.017 60.6252 232.962 59.96C232.911 59.6279 232.898 59.2911 232.922 58.956C232.936 58.8113 233.007 58.6778 233.119 58.584C233.144 58.5688 233.173 58.5591 233.203 58.5556C233.232 58.5522 233.263 58.5551 233.291 58.564C233.325 58.5722 233.358 58.5857 233.387 58.604C233.408 58.6192 233.423 58.6401 233.432 58.664C233.558 58.9884 233.651 59.3248 233.709 59.668C233.781 60.02 233.841 60.384 233.897 60.748C233.953 61.112 234.006 61.48 234.05 61.852C234.084 62.2359 234.146 62.6168 234.234 62.992C234.282 63.1838 234.342 63.3723 234.415 63.556C234.456 63.6589 234.513 63.7547 234.583 63.84C234.611 63.8755 234.647 63.9026 234.689 63.9181C234.731 63.9337 234.776 63.9371 234.82 63.928C234.861 63.9146 234.897 63.8911 234.926 63.8595C234.955 63.828 234.975 63.7896 234.985 63.748C235.032 63.5436 235.047 63.333 235.029 63.124C235.029 62.924 235.005 62.724 234.985 62.532C234.957 62.196 234.925 61.864 234.913 61.536C234.902 61.3748 234.902 61.2132 234.913 61.052C234.92 60.9807 234.938 60.9107 234.965 60.844C234.973 60.822 234.985 60.8017 235.001 60.784H235.053C235.318 60.676 235.406 61.044 235.478 61.34C235.551 61.636 235.579 61.972 235.643 62.288C235.747 62.916 235.884 63.544 235.952 64.144C235.998 64.4313 235.988 64.7249 235.92 65.008C235.824 65.296 235.727 65.58 235.635 65.864V65.892V65.916C236.105 67.8811 236.704 69.8133 237.429 71.7C238.063 73.408 238.701 74.9 239.259 76.1C239.817 77.3 240.323 78.24 240.668 78.872L241.069 79.588C241.112 79.6733 241.165 79.7538 241.226 79.828C241.192 79.7392 241.15 79.6535 241.101 79.572L240.7 78.84C240.371 78.196 239.897 77.24 239.351 76.04C238.805 74.84 238.187 73.348 237.569 71.64C236.862 69.7562 236.275 67.8296 235.812 65.872V65.928C235.904 65.648 235.996 65.364 236.092 65.08C236.176 64.7683 236.192 64.4425 236.141 64.124C236.068 63.496 235.936 62.888 235.832 62.256C235.771 61.944 235.731 61.624 235.667 61.296C235.663 61.1275 235.635 60.9605 235.583 60.8C235.537 60.7024 235.459 60.6234 235.362 60.576C235.259 60.5424 235.148 60.5424 235.045 60.576H234.981C234.947 60.5869 234.915 60.6046 234.888 60.628C234.844 60.6657 234.809 60.7138 234.788 60.768C234.751 60.8546 234.728 60.9464 234.72 61.04C234.708 61.2131 234.708 61.3869 234.72 61.56C234.72 61.896 234.768 62.232 234.796 62.568C234.796 62.764 234.828 62.968 234.836 63.148C234.852 63.3284 234.843 63.5102 234.808 63.688C234.808 63.728 234.776 63.72 234.808 63.74L234.784 63.716C234.733 63.6507 234.692 63.5778 234.664 63.5C234.594 63.327 234.536 63.1492 234.491 62.968C234.403 62.6037 234.343 62.2333 234.311 61.86C234.268 61.484 234.216 61.112 234.154 60.744C234.098 60.376 234.034 60.016 233.961 59.656C233.901 59.2896 233.799 58.9313 233.656 58.588C233.629 58.5307 233.586 58.4822 233.532 58.448C233.485 58.421 233.435 58.3995 233.383 58.384C233.326 58.369 233.267 58.3656 233.208 58.3738C233.149 58.3821 233.093 58.4018 233.042 58.432C232.96 58.4936 232.89 58.5716 232.839 58.6611C232.788 58.7506 232.756 58.8496 232.745 58.952C232.719 59.1338 232.719 59.3183 232.745 59.5C232.745 59.672 232.785 59.84 232.797 60.008C232.853 60.6625 232.865 61.3199 232.834 61.976C232.824 62.1319 232.804 62.2869 232.773 62.44C232.762 62.5115 232.742 62.5814 232.713 62.648C232.703 62.6744 232.688 62.6987 232.669 62.72C232.669 62.756 232.641 62.72 232.645 62.768C232.645 62.728 232.645 62.768 232.645 62.716C232.627 62.689 232.611 62.661 232.597 62.632C232.569 62.568 232.545 62.496 232.521 62.428C232.476 62.284 232.444 62.136 232.412 61.992C232.203 60.8967 232.051 59.7912 231.959 58.68C231.971 58.4789 231.948 58.2772 231.89 58.084C231.864 57.9832 231.81 57.8918 231.734 57.82C231.695 57.7822 231.648 57.7527 231.597 57.7335C231.546 57.7142 231.492 57.7056 231.437 57.708H231.461C231.393 57.6981 231.324 57.7084 231.262 57.7376C231.2 57.7667 231.147 57.8135 231.112 57.872C231.052 57.9674 231.011 58.0733 230.991 58.184C230.958 58.3823 230.939 58.5829 230.935 58.784C230.935 59.184 230.935 59.532 230.935 59.872C230.973 60.4467 231.047 61.0184 231.156 61.584C231.224 62.048 231.276 62.408 231.301 62.652C231.308 62.6947 231.301 62.7388 231.28 62.7767C231.258 62.8146 231.225 62.8441 231.184 62.86C231.064 62.872 231.028 62.876 231.032 62.88Z" fill="#A36957"/>
<path d="M204.893 83.292C204.11 83.2754 203.328 83.3656 202.569 83.56C200.494 84.104 196.918 86.264 196.77 88.932H199.37C199.37 88.932 197.914 92.02 198.339 91.732C199.451 90.988 201.658 88.752 201.658 88.752L204.893 83.292Z" fill="#B78876"/>
<path d="M240.343 36.8C240.282 36.8 240.05 34.664 239.817 32C239.584 29.336 239.44 27.2 239.496 27.2C239.552 27.2 239.789 29.336 240.021 32C240.254 34.664 240.399 36.8 240.343 36.8Z" fill="#263238"/>
<path d="M251.745 27.3641C251.789 27.3961 250.035 29.9361 247.824 33.0361C245.612 36.1361 243.778 38.6361 243.73 38.5881C243.682 38.5401 245.44 36.0161 247.651 32.9161C249.862 29.8161 251.696 27.3321 251.745 27.3641Z" fill="#263238"/>
<path d="M256.48 38.8759C256.48 38.9319 254.441 39.3999 251.905 39.9199C249.369 40.4399 247.298 40.8159 247.286 40.7599C247.274 40.7039 249.32 40.2359 251.861 39.7159C254.401 39.1959 256.452 38.8199 256.48 38.8759Z" fill="#263238"/>
<path d="M119.999 93.816L105.791 166.536L103.945 176.056L198.66 175.6C202.914 175.58 206.687 171.816 208.047 166.224L224.847 97.572C225.886 93.328 223.607 88.912 220.38 88.916L124.494 89.016C122.407 89.012 120.536 90.98 119.999 93.816Z" fill="#E59C9C"/>
<g opacity="0.5">
<path opacity="0.5" d="M119.999 93.816L105.791 166.536L103.945 176.056L198.66 175.6C202.914 175.58 206.687 171.816 208.047 166.224L224.847 97.572C225.886 93.328 223.607 88.912 220.38 88.916L124.494 89.016C122.407 89.012 120.536 90.98 119.999 93.816Z" fill="white"/>
</g>
<path d="M189.586 161.6L179.553 81.036C179.151 77.736 176.506 75.272 173.388 75.284L151.395 75.352C150.578 75.3612 149.771 75.5361 149.024 75.8662C148.276 76.1963 147.604 76.6746 147.049 77.272L136.614 88.34L75.4507 88.668C71.7143 88.688 68.8407 92.216 69.3344 96.176L78.6493 170.636C79.0506 173.932 81.6954 176.392 84.8058 176.388L191.42 176.176C203.291 176.42 204.427 172.928 204.427 172.928C190.798 175.932 189.586 161.62 189.586 161.6Z" fill="#E59C9C"/>
<g opacity="0.5">
<path opacity="0.5" d="M143.613 145.488L140.017 149.336L112.325 124.504L115.921 120.656L143.613 145.488Z" fill="#404040"/>
<path opacity="0.5" d="M138.512 119.804L142.485 123.368L117.43 150.188L113.453 146.624L138.512 119.804Z" fill="#404040"/>
</g>
</svg>
